# xmcd
#
# Track frame offsets: 
#        150
#        45915
#        51873
#        58317
#
# Disc length: 829 seconds
#
# Revision: 1
# Processed by: cddbd v1.5.2PL0 Copyright (c) Steve Scherf et al.
# Submitted via: ExactAudioCopy v1.3
#
DISCID=30033b04
DTITLE=Disney - Nursery Rhymes (Read-Along)
DYEAR=0
DGENRE=Children's
TTITLE0=Nursery Rhymes Read-Along
TTITLE1=Mary Had a Little Lamb
TTITLE2=Sing a Song of Sixpence - Old King Cole medley
TTITLE3=Nursery Rhyme medley
EXTD=
EXTT0=
EXTT1=
EXTT2=
EXTT3=
PLAYORDER=
